<svg xmlns="http://www.w3.org/2000/svg" viewBox="0 0 180 180" width="180" height="180">
  <rect width="180" height="180" fill="#FAF7F2" rx="32"/>
  <g stroke="#0F2A47" stroke-width="12" stroke-linecap="round" stroke-linejoin="round" fill="none">
    <line x1="90" y1="40" x2="90" y2="140"/>
    <line x1="50" y1="140" x2="130" y2="140"/>
    <line x1="38" y1="74" x2="62" y2="74"/>
    <line x1="118" y1="74" x2="142" y2="74"/>
  </g>
  <path d="M 38 74 L 26 108 L 74 108 L 62 74 Z" fill="#0F2A47" stroke="#0F2A47" stroke-width="6" stroke-linejoin="round"/>
  <path d="M 118 74 L 106 108 L 154 108 L 142 74 Z" fill="#0F2A47" stroke="#0F2A47" stroke-width="6" stroke-linejoin="round"/>
  <path d="M 90 22 C 84 22 78 28 78 34 C 78 42 90 52 90 52 C 90 52 102 42 102 34 C 102 28 96 22 90 22 Z" fill="#C4523D"/>
</svg>
