<svg xmlns="http://www.w3.org/2000/svg" viewBox="0 0 64 64" width="64" height="64">
  <rect width="64" height="64" fill="#FAF7F2" rx="10"/>
  <g stroke="#0F2A47" stroke-width="5" stroke-linecap="round" stroke-linejoin="round" fill="none">
    <line x1="32" y1="14" x2="32" y2="50"/>
    <line x1="18" y1="50" x2="46" y2="50"/>
    <line x1="14" y1="26" x2="22" y2="26"/>
    <line x1="42" y1="26" x2="50" y2="26"/>
  </g>
  <path d="M 14 26 L 10 38 L 26 38 L 22 26 Z" fill="#0F2A47" stroke="#0F2A47" stroke-width="2" stroke-linejoin="round"/>
  <path d="M 42 26 L 38 38 L 54 38 L 50 26 Z" fill="#0F2A47" stroke="#0F2A47" stroke-width="2" stroke-linejoin="round"/>
  <path d="M 32 8 C 30 8 28 10 28 12 C 28 15 32 18 32 18 C 32 18 36 15 36 12 C 36 10 34 8 32 8 Z" fill="#C4523D"/>
</svg>
